# xmcd CD database file
#
# Track frame offsets:
#	150
#	17100
#	30750
#	44175
#	63712
#	82500
#	94350
#	107100
#	122325
#	135450
#	146475
#	161325
#	174675
#	186225
#	203550
#
# Disc length: 2867 seconds
#
# Revision: 2
# Processed by: cddbd v1.5.2PL0 Copyright (c) Steve Scherf et al.
# Submitted via: CDex 1.51
#
DISCID=c30b310f
DTITLE=Various Artist - I Can't Stop Loving You
DYEAR=1900
DGENRE=Oldies
TTITLE0=Alan Sorrenti - Tu sei l'unica donna per me
TTITLE1=Percy Sledge - My Special Prayer
TTITLE2=Ben E. King - Spanish Harlem
TTITLE3=Alain Barriere - Tu t'en vas
TTITLE4=Lobo - I'd Love You To Want Me
TTITLE5=Skeeter Davis - End Of The World
TTITLE6=Johnny Ray - Just Walking In The Rain
TTITLE7=Fausto Leali - A Chi (Hurt)
TTITLE8=Pat Boone - I'll Be Home
TTITLE9=Brook Benton - Endlessy
TTITLE10=Pascal Danel - Kilimandscharo
TTITLE11=Percy Slegde - When A Man Loves A Woman
TTITLE12=Sammi Smith - Help Me Make It Trough The Night
TTITLE13=Pop Tops - Mamy Blue
TTITLE14=Don Gibson - I Can't Stop Loving You
EXTD=
EXTT0=
EXTT1=
EXTT2=
EXTT3=
EXTT4=
EXTT5=
EXTT6=
EXTT7=
EXTT8=
EXTT9=
EXTT10=
EXTT11=
EXTT12=
EXTT13=
EXTT14=
PLAYORDER=
